<mxfile host="app.diagrams.net" agent="Mozilla/5.0 (Macintosh; Intel Mac OS X 10_15_7) AppleWebKit/537.36 (KHTML, like Gecko) Chrome/140.0.0.0 Safari/537.36" version="28.2.6">
  <diagram name="Page-1" id="jR8yjtnpcwizbuIGDy_K">
    <mxGraphModel dx="2772" dy="1613" grid="1" gridSize="10" guides="1" tooltips="1" connect="1" arrows="1" fold="1" page="1" pageScale="1" pageWidth="827" pageHeight="1169" math="0" shadow="0">
      <root>
        <mxCell id="0" />
        <mxCell id="1" parent="0" />
        <mxCell id="W86yD8HpNEZfdBtG1At9-2" value="" style="rounded=0;whiteSpace=wrap;html=1;" vertex="1" parent="1">
          <mxGeometry x="-120" y="300" width="220" height="290" as="geometry" />
        </mxCell>
        <mxCell id="W86yD8HpNEZfdBtG1At9-3" value="&lt;font style=&quot;font-size: 20px;&quot;&gt;Input Handling&lt;/font&gt;" style="text;html=1;whiteSpace=wrap;strokeColor=none;fillColor=none;align=center;verticalAlign=middle;rounded=0;" vertex="1" parent="1">
          <mxGeometry x="-105" y="310" width="190" height="40" as="geometry" />
        </mxCell>
        <mxCell id="W86yD8HpNEZfdBtG1At9-4" value="" style="rounded=0;whiteSpace=wrap;html=1;" vertex="1" parent="1">
          <mxGeometry x="1230" y="290" width="300" height="430" as="geometry" />
        </mxCell>
        <mxCell id="W86yD8HpNEZfdBtG1At9-5" value="&lt;font style=&quot;font-size: 20px;&quot;&gt;External Responders&lt;/font&gt;" style="text;html=1;whiteSpace=wrap;strokeColor=none;fillColor=none;align=center;verticalAlign=middle;rounded=0;" vertex="1" parent="1">
          <mxGeometry x="1268.75" y="310" width="222.5" height="30" as="geometry" />
        </mxCell>
        <mxCell id="W86yD8HpNEZfdBtG1At9-7" value="" style="rounded=0;whiteSpace=wrap;html=1;" vertex="1" parent="1">
          <mxGeometry x="540" y="670" width="380" height="340" as="geometry" />
        </mxCell>
        <mxCell id="W86yD8HpNEZfdBtG1At9-8" value="&lt;font style=&quot;font-size: 20px;&quot;&gt;Notification Manager&lt;/font&gt;" style="text;html=1;whiteSpace=wrap;strokeColor=none;fillColor=none;align=center;verticalAlign=middle;rounded=0;" vertex="1" parent="1">
          <mxGeometry x="622" y="690" width="225" height="20" as="geometry" />
        </mxCell>
        <mxCell id="W86yD8HpNEZfdBtG1At9-9" value="" style="rounded=0;whiteSpace=wrap;html=1;" vertex="1" parent="1">
          <mxGeometry x="457" y="220" width="593" height="400" as="geometry" />
        </mxCell>
        <mxCell id="W86yD8HpNEZfdBtG1At9-10" value="&lt;font style=&quot;font-size: 20px;&quot;&gt;Communication Handling&lt;/font&gt;" style="text;html=1;whiteSpace=wrap;strokeColor=none;fillColor=none;align=center;verticalAlign=middle;rounded=0;" vertex="1" parent="1">
          <mxGeometry x="607.75" y="240" width="261.5" height="20" as="geometry" />
        </mxCell>
        <mxCell id="W86yD8HpNEZfdBtG1At9-11" value="" style="rounded=0;whiteSpace=wrap;html=1;" vertex="1" parent="1">
          <mxGeometry x="110" y="670" width="290" height="340" as="geometry" />
        </mxCell>
        <mxCell id="W86yD8HpNEZfdBtG1At9-12" value="&lt;font style=&quot;font-size: 20px;&quot;&gt;Perception and Context&lt;/font&gt;" style="text;html=1;whiteSpace=wrap;strokeColor=none;fillColor=none;align=center;verticalAlign=middle;rounded=0;" vertex="1" parent="1">
          <mxGeometry x="124.75" y="690" width="260.5" height="20" as="geometry" />
        </mxCell>
        <mxCell id="W86yD8HpNEZfdBtG1At9-58" value="" style="edgeStyle=orthogonalEdgeStyle;rounded=0;orthogonalLoop=1;jettySize=auto;html=1;" edge="1" parent="1" source="W86yD8HpNEZfdBtG1At9-15" target="W86yD8HpNEZfdBtG1At9-57">
          <mxGeometry relative="1" as="geometry" />
        </mxCell>
        <mxCell id="W86yD8HpNEZfdBtG1At9-15" value="Trigger Detection" style="rounded=0;whiteSpace=wrap;html=1;" vertex="1" parent="1">
          <mxGeometry x="-70" y="390" width="120" height="60" as="geometry" />
        </mxCell>
        <mxCell id="W86yD8HpNEZfdBtG1At9-16" value="" style="endArrow=classic;html=1;rounded=0;entryX=0;entryY=0.5;entryDx=0;entryDy=0;" edge="1" parent="1" target="W86yD8HpNEZfdBtG1At9-15">
          <mxGeometry width="50" height="50" relative="1" as="geometry">
            <mxPoint x="-250" y="420" as="sourcePoint" />
            <mxPoint x="220" y="460" as="targetPoint" />
          </mxGeometry>
        </mxCell>
        <mxCell id="W86yD8HpNEZfdBtG1At9-19" value="Mode of response" style="rhombus;whiteSpace=wrap;html=1;" vertex="1" parent="1">
          <mxGeometry x="480" y="355" width="133.5" height="130" as="geometry" />
        </mxCell>
        <mxCell id="W86yD8HpNEZfdBtG1At9-21" value="Voice Call" style="rounded=0;whiteSpace=wrap;html=1;" vertex="1" parent="1">
          <mxGeometry x="670" y="310" width="120" height="60" as="geometry" />
        </mxCell>
        <mxCell id="W86yD8HpNEZfdBtG1At9-24" value="" style="edgeStyle=orthogonalEdgeStyle;rounded=0;orthogonalLoop=1;jettySize=auto;html=1;" edge="1" parent="1" source="W86yD8HpNEZfdBtG1At9-22" target="W86yD8HpNEZfdBtG1At9-23">
          <mxGeometry relative="1" as="geometry" />
        </mxCell>
        <mxCell id="W86yD8HpNEZfdBtG1At9-22" value="SMS Dispatcher" style="rounded=0;whiteSpace=wrap;html=1;" vertex="1" parent="1">
          <mxGeometry x="670" y="490" width="120" height="60" as="geometry" />
        </mxCell>
        <mxCell id="W86yD8HpNEZfdBtG1At9-23" value="Contact Notifier" style="rounded=0;whiteSpace=wrap;html=1;" vertex="1" parent="1">
          <mxGeometry x="870" y="490" width="130" height="60" as="geometry" />
        </mxCell>
        <mxCell id="W86yD8HpNEZfdBtG1At9-25" value="" style="endArrow=classic;html=1;rounded=0;exitX=0.5;exitY=1;exitDx=0;exitDy=0;" edge="1" parent="1" source="W86yD8HpNEZfdBtG1At9-19">
          <mxGeometry width="50" height="50" relative="1" as="geometry">
            <mxPoint x="860" y="570" as="sourcePoint" />
            <mxPoint x="670" y="515" as="targetPoint" />
            <Array as="points">
              <mxPoint x="547" y="515" />
            </Array>
          </mxGeometry>
        </mxCell>
        <mxCell id="W86yD8HpNEZfdBtG1At9-26" value="" style="endArrow=classic;html=1;rounded=0;exitX=0.5;exitY=0;exitDx=0;exitDy=0;entryX=-0.008;entryY=0.383;entryDx=0;entryDy=0;entryPerimeter=0;" edge="1" parent="1" source="W86yD8HpNEZfdBtG1At9-19" target="W86yD8HpNEZfdBtG1At9-21">
          <mxGeometry width="50" height="50" relative="1" as="geometry">
            <mxPoint x="610" y="510" as="sourcePoint" />
            <mxPoint x="733" y="540" as="targetPoint" />
            <Array as="points">
              <mxPoint x="547" y="330" />
            </Array>
          </mxGeometry>
        </mxCell>
        <mxCell id="W86yD8HpNEZfdBtG1At9-55" value="" style="edgeStyle=orthogonalEdgeStyle;rounded=0;orthogonalLoop=1;jettySize=auto;html=1;" edge="1" parent="1" source="W86yD8HpNEZfdBtG1At9-27" target="W86yD8HpNEZfdBtG1At9-28">
          <mxGeometry relative="1" as="geometry" />
        </mxCell>
        <mxCell id="W86yD8HpNEZfdBtG1At9-27" value="&lt;font style=&quot;font-size: 14px;&quot;&gt;Acknowledgement Tracker&lt;/font&gt;" style="rounded=0;whiteSpace=wrap;html=1;" vertex="1" parent="1">
          <mxGeometry x="642" y="770" width="185" height="60" as="geometry" />
        </mxCell>
        <mxCell id="W86yD8HpNEZfdBtG1At9-28" value="&lt;font style=&quot;font-size: 14px;&quot;&gt;Periodic Updates&lt;/font&gt;" style="rounded=0;whiteSpace=wrap;html=1;" vertex="1" parent="1">
          <mxGeometry x="642" y="880" width="185" height="60" as="geometry" />
        </mxCell>
        <mxCell id="W86yD8HpNEZfdBtG1At9-29" value="&lt;font style=&quot;font-size: 15px;&quot;&gt;Location Service&lt;/font&gt;" style="rounded=0;whiteSpace=wrap;html=1;" vertex="1" parent="1">
          <mxGeometry x="177.5" y="770" width="155" height="60" as="geometry" />
        </mxCell>
        <mxCell id="W86yD8HpNEZfdBtG1At9-30" value="&lt;font style=&quot;font-size: 14px;&quot;&gt;Context Capture&lt;/font&gt;" style="rounded=0;whiteSpace=wrap;html=1;" vertex="1" parent="1">
          <mxGeometry x="177.5" y="880" width="152.5" height="60" as="geometry" />
        </mxCell>
        <mxCell id="W86yD8HpNEZfdBtG1At9-31" value="Trusted Contacts" style="rounded=0;whiteSpace=wrap;html=1;" vertex="1" parent="1">
          <mxGeometry x="1315" y="415" width="130" height="60" as="geometry" />
        </mxCell>
        <mxCell id="W86yD8HpNEZfdBtG1At9-32" value="119/222 ECAS (Voice)" style="rounded=0;whiteSpace=wrap;html=1;" vertex="1" parent="1">
          <mxGeometry x="1315" y="520" width="130" height="60" as="geometry" />
        </mxCell>
        <mxCell id="W86yD8HpNEZfdBtG1At9-33" value="112 SMS/Text Relay" style="rounded=0;whiteSpace=wrap;html=1;" vertex="1" parent="1">
          <mxGeometry x="1315" y="620" width="130" height="60" as="geometry" />
        </mxCell>
        <mxCell id="W86yD8HpNEZfdBtG1At9-39" value="" style="endArrow=none;html=1;rounded=0;edgeStyle=orthogonalEdgeStyle;exitX=1;exitY=0.5;exitDx=0;exitDy=0;" edge="1" parent="1" source="W86yD8HpNEZfdBtG1At9-29">
          <mxGeometry width="50" height="50" relative="1" as="geometry">
            <mxPoint x="397" y="675" as="sourcePoint" />
            <mxPoint x="547" y="515" as="targetPoint" />
            <Array as="points">
              <mxPoint x="430" y="800" />
              <mxPoint x="430" y="515" />
            </Array>
          </mxGeometry>
        </mxCell>
        <mxCell id="W86yD8HpNEZfdBtG1At9-41" value="" style="endArrow=none;html=1;rounded=0;edgeStyle=orthogonalEdgeStyle;exitX=1;exitY=0.5;exitDx=0;exitDy=0;" edge="1" parent="1" source="W86yD8HpNEZfdBtG1At9-30">
          <mxGeometry width="50" height="50" relative="1" as="geometry">
            <mxPoint x="460" y="860" as="sourcePoint" />
            <mxPoint x="430" y="800" as="targetPoint" />
          </mxGeometry>
        </mxCell>
        <mxCell id="W86yD8HpNEZfdBtG1At9-42" value="" style="endArrow=classic;html=1;rounded=0;exitX=0;exitY=0.5;exitDx=0;exitDy=0;entryX=0.5;entryY=1;entryDx=0;entryDy=0;" edge="1" parent="1" source="W86yD8HpNEZfdBtG1At9-30" target="W86yD8HpNEZfdBtG1At9-57">
          <mxGeometry width="50" height="50" relative="1" as="geometry">
            <mxPoint x="270" y="750" as="sourcePoint" />
            <mxPoint x="195" y="485" as="targetPoint" />
            <Array as="points">
              <mxPoint x="40" y="910" />
              <mxPoint x="-10" y="910" />
              <mxPoint x="-10" y="780" />
              <mxPoint x="-10" y="630" />
            </Array>
          </mxGeometry>
        </mxCell>
        <mxCell id="W86yD8HpNEZfdBtG1At9-43" value="Network Policy" style="edgeLabel;html=1;align=center;verticalAlign=middle;resizable=0;points=[];" vertex="1" connectable="0" parent="W86yD8HpNEZfdBtG1At9-42">
          <mxGeometry x="-0.2874" y="-3" relative="1" as="geometry">
            <mxPoint as="offset" />
          </mxGeometry>
        </mxCell>
        <mxCell id="W86yD8HpNEZfdBtG1At9-44" value="" style="endArrow=none;html=1;rounded=0;exitX=0;exitY=0.5;exitDx=0;exitDy=0;" edge="1" parent="1" source="W86yD8HpNEZfdBtG1At9-27">
          <mxGeometry width="50" height="50" relative="1" as="geometry">
            <mxPoint x="510" y="750" as="sourcePoint" />
            <mxPoint x="430" y="800" as="targetPoint" />
          </mxGeometry>
        </mxCell>
        <mxCell id="W86yD8HpNEZfdBtG1At9-45" value="Retry if failed" style="edgeLabel;html=1;align=center;verticalAlign=middle;resizable=0;points=[];" vertex="1" connectable="0" parent="W86yD8HpNEZfdBtG1At9-44">
          <mxGeometry x="-0.1889" y="3" relative="1" as="geometry">
            <mxPoint as="offset" />
          </mxGeometry>
        </mxCell>
        <mxCell id="W86yD8HpNEZfdBtG1At9-46" style="edgeStyle=orthogonalEdgeStyle;rounded=0;orthogonalLoop=1;jettySize=auto;html=1;exitX=0.5;exitY=1;exitDx=0;exitDy=0;" edge="1" parent="1" source="W86yD8HpNEZfdBtG1At9-8" target="W86yD8HpNEZfdBtG1At9-8">
          <mxGeometry relative="1" as="geometry" />
        </mxCell>
        <mxCell id="W86yD8HpNEZfdBtG1At9-48" value="" style="endArrow=classic;html=1;rounded=0;edgeStyle=orthogonalEdgeStyle;entryX=0;entryY=0.5;entryDx=0;entryDy=0;startArrow=classic;startFill=1;" edge="1" parent="1" target="W86yD8HpNEZfdBtG1At9-33">
          <mxGeometry width="50" height="50" relative="1" as="geometry">
            <mxPoint x="730" y="490" as="sourcePoint" />
            <mxPoint x="940" y="700" as="targetPoint" />
            <Array as="points">
              <mxPoint x="730" y="420" />
              <mxPoint x="1120" y="420" />
              <mxPoint x="1120" y="650" />
            </Array>
          </mxGeometry>
        </mxCell>
        <mxCell id="W86yD8HpNEZfdBtG1At9-49" value="" style="endArrow=classic;html=1;rounded=0;edgeStyle=orthogonalEdgeStyle;entryX=0;entryY=0.5;entryDx=0;entryDy=0;exitX=1;exitY=0.5;exitDx=0;exitDy=0;startArrow=classic;startFill=1;" edge="1" parent="1" source="W86yD8HpNEZfdBtG1At9-21" target="W86yD8HpNEZfdBtG1At9-32">
          <mxGeometry width="50" height="50" relative="1" as="geometry">
            <mxPoint x="890" y="750" as="sourcePoint" />
            <mxPoint x="940" y="700" as="targetPoint" />
            <Array as="points">
              <mxPoint x="1150" y="340" />
              <mxPoint x="1150" y="550" />
            </Array>
          </mxGeometry>
        </mxCell>
        <mxCell id="W86yD8HpNEZfdBtG1At9-50" value="" style="endArrow=classic;html=1;rounded=0;edgeStyle=orthogonalEdgeStyle;entryX=0;entryY=0.5;entryDx=0;entryDy=0;exitX=1;exitY=0.5;exitDx=0;exitDy=0;" edge="1" parent="1" source="W86yD8HpNEZfdBtG1At9-28" target="W86yD8HpNEZfdBtG1At9-31">
          <mxGeometry width="50" height="50" relative="1" as="geometry">
            <mxPoint x="890" y="750" as="sourcePoint" />
            <mxPoint x="940" y="700" as="targetPoint" />
            <Array as="points">
              <mxPoint x="1090" y="910" />
              <mxPoint x="1090" y="445" />
            </Array>
          </mxGeometry>
        </mxCell>
        <mxCell id="W86yD8HpNEZfdBtG1At9-53" value="" style="endArrow=classic;html=1;rounded=0;entryX=1;entryY=0.5;entryDx=0;entryDy=0;" edge="1" parent="1" target="W86yD8HpNEZfdBtG1At9-27">
          <mxGeometry width="50" height="50" relative="1" as="geometry">
            <mxPoint x="1090" y="800" as="sourcePoint" />
            <mxPoint x="940" y="700" as="targetPoint" />
          </mxGeometry>
        </mxCell>
        <mxCell id="W86yD8HpNEZfdBtG1At9-54" value="" style="endArrow=classic;html=1;rounded=0;entryX=0.5;entryY=0;entryDx=0;entryDy=0;exitX=1;exitY=0.5;exitDx=0;exitDy=0;" edge="1" parent="1" source="W86yD8HpNEZfdBtG1At9-23" target="W86yD8HpNEZfdBtG1At9-31">
          <mxGeometry width="50" height="50" relative="1" as="geometry">
            <mxPoint x="890" y="750" as="sourcePoint" />
            <mxPoint x="940" y="700" as="targetPoint" />
            <Array as="points">
              <mxPoint x="1190" y="520" />
              <mxPoint x="1190" y="370" />
              <mxPoint x="1280" y="370" />
              <mxPoint x="1380" y="370" />
            </Array>
          </mxGeometry>
        </mxCell>
        <mxCell id="W86yD8HpNEZfdBtG1At9-57" value="&lt;span style=&quot;font-family: Helvetica; font-size: 12px; font-style: normal; font-variant-ligatures: normal; font-variant-caps: normal; font-weight: 400; letter-spacing: normal; orphans: 2; text-align: center; text-indent: 0px; text-transform: none; widows: 2; word-spacing: 0px; -webkit-text-stroke-width: 0px; white-space: normal; text-decoration-thickness: initial; text-decoration-style: initial; text-decoration-color: initial; float: none; display: inline !important;&quot;&gt;&lt;font style=&quot;color: light-dark(rgb(255, 255, 255), rgb(255, 255, 255));&quot;&gt;Timer to capture decision&lt;/font&gt;&lt;/span&gt;" style="rounded=0;whiteSpace=wrap;html=1;" vertex="1" parent="1">
          <mxGeometry x="-70" y="490" width="120" height="60" as="geometry" />
        </mxCell>
        <mxCell id="W86yD8HpNEZfdBtG1At9-59" value="" style="endArrow=classic;html=1;rounded=0;edgeStyle=orthogonalEdgeStyle;entryX=0;entryY=0.5;entryDx=0;entryDy=0;exitX=1;exitY=0.5;exitDx=0;exitDy=0;" edge="1" parent="1" source="W86yD8HpNEZfdBtG1At9-57" target="W86yD8HpNEZfdBtG1At9-19">
          <mxGeometry width="50" height="50" relative="1" as="geometry">
            <mxPoint x="430" y="650" as="sourcePoint" />
            <mxPoint x="480" y="600" as="targetPoint" />
          </mxGeometry>
        </mxCell>
      </root>
    </mxGraphModel>
  </diagram>
</mxfile>
